<svg width="213" height="84" viewBox="0 0 213 84" fill="none" xmlns="http://www.w3.org/2000/svg">
<path d="M44 3H0V65H44V55H10V13H44V3Z" fill="#556273"/>
<path d="M63 22V32H29V52H19V22H63Z" fill="#556273"/>
<path d="M29 68H19V84H63V39H42.5V49.5H52.5V74H29V68Z" fill="#556273"/>
<path d="M105.136 40.216V47H91.632C88.2613 47 85.744 46.2747 84.08 44.824C82.4587 43.3733 81.648 41.1333 81.648 38.104V15.256C81.648 12.2267 82.4587 9.98667 84.08 8.536C85.744 7.08533 88.2613 6.36 91.632 6.36H105.136V13.144H90.032C89.52 13.144 89.264 13.4 89.264 13.912V39.448C89.264 39.96 89.52 40.216 90.032 40.216H105.136ZM140.62 47H133.132L130.892 36.568L131.66 37.208H115.595L116.364 36.568L113.804 47H106.764L115.724 13.08C116.236 11.2453 116.769 9.816 117.324 8.792C117.878 7.768 118.668 7.064 119.692 6.68C120.716 6.25333 122.124 6.06133 123.916 6.104L131.468 6.36L140.62 47ZM122.124 13.592L117.644 31.384L117.132 30.744H130.316L129.804 31.384L125.708 12.824H122.892C122.636 12.824 122.465 12.888 122.38 13.016C122.294 13.1013 122.209 13.2933 122.124 13.592ZM153.221 47H145.669V6.36L162.885 6.104C166.298 6.01866 168.88 6.78666 170.629 8.408C172.421 10.0293 173.317 12.376 173.317 15.448V21.912C173.317 24.3867 172.634 26.456 171.269 28.12C169.946 29.784 167.984 30.8293 165.381 31.256V29.784C166.704 30.04 167.749 30.552 168.517 31.32C169.285 32.088 169.946 33.2613 170.501 34.84L174.789 47H167.237L162.373 32.472C162.245 32.1307 162.117 31.896 161.989 31.768C161.904 31.5973 161.669 31.512 161.285 31.512H152.005L153.221 30.296V47ZM153.221 11.352V26.2L152.133 25.048H164.741C165.338 25.048 165.637 24.7707 165.637 24.216V13.464C165.637 12.9093 165.338 12.632 164.741 12.632H152.133L153.221 11.352ZM200.628 12.568H188.34V40.792H200.628C201.225 40.792 201.524 40.4933 201.524 39.896V13.464C201.524 12.8667 201.225 12.568 200.628 12.568ZM180.852 47V6.36L198.772 6.04C202.271 5.95466 204.873 6.68 206.58 8.216C208.287 9.752 209.14 12.1627 209.14 15.448V37.912C209.14 41.1973 208.265 43.608 206.516 45.144C204.809 46.6373 202.185 47.3627 198.644 47.32L180.852 47ZM91.86 80.42H87.87C85.35 80.42 83.46 79.86 82.2 78.74C80.94 77.592 80.31 75.912 80.31 73.7V59.63C80.31 57.418 80.94 55.752 82.2 54.632C83.46 53.484 85.35 52.91 87.87 52.91H98.874V58.496H87.198C86.806 58.496 86.61 58.692 86.61 59.084V74.246C86.61 74.638 86.806 74.834 87.198 74.834H92.952C93.344 74.834 93.54 74.638 93.54 74.246V69.164L94.086 70.13H90.6V64.964H99.42V73.7C99.42 75.912 98.79 77.592 97.53 78.74C96.27 79.86 94.38 80.42 91.86 80.42ZM124.281 80H118.107L116.847 73.658L117.351 74.078H107.901L108.405 73.658L106.977 80H101.181L106.641 58.16C106.977 56.844 107.355 55.822 107.775 55.094C108.195 54.338 108.783 53.806 109.539 53.498C110.295 53.19 111.317 53.064 112.605 53.12L118.653 53.33L124.281 80ZM111.723 59.252L109.455 69.164L109.119 68.744H116.301L115.965 69.164L113.907 58.664H112.311C112.115 58.664 111.975 58.706 111.891 58.79C111.835 58.874 111.779 59.028 111.723 59.252ZM135.673 80H129.457V57.908L130.297 58.748H123.409V53.33H141.721V58.748H134.833L135.673 57.908V80ZM158.54 64.586V53.33H164.756V80H158.54V68.324L159.38 69.164H149.762L150.602 68.324V80H144.386V53.33H150.602V64.586L149.762 63.746H159.38L158.54 64.586ZM186.564 80H170.226V53.33H186.354V58.748H175.602L176.442 57.908V64.67L175.602 63.83H185.514V69.164H175.602L176.442 68.324V75.422L175.602 74.582H186.564V80ZM196.996 80H190.78V53.33L202.12 53.12C204.64 53.064 206.558 53.652 207.874 54.884C209.218 56.116 209.89 57.838 209.89 60.05V63.284C209.89 64.936 209.428 66.406 208.504 67.694C207.58 68.954 206.222 69.794 204.43 70.214V68.996C205.466 69.192 206.278 69.57 206.866 70.13C207.482 70.662 207.986 71.488 208.378 72.608L210.982 80H204.766L201.868 71.138C201.784 70.914 201.7 70.746 201.616 70.634C201.56 70.522 201.406 70.466 201.154 70.466H196.156L196.996 69.5V80ZM196.996 57.53V65.93L196.156 65.09H203.002C203.394 65.09 203.59 64.894 203.59 64.502V59.126C203.59 58.734 203.394 58.538 203.002 58.538H196.156L196.996 57.53Z" fill="#556273"/>
</svg>
